<svg width="202" height="202" xmlns="http://www.w3.org/2000/svg" xmlns:xlink="http://www.w3.org/1999/xlink" xml:space="preserve" overflow="hidden"><g transform="translate(-1803 -1473)"><path d="M1803.5 1507C1803.5 1488.5 1818.5 1473.5 1837 1473.5L1971 1473.5C1989.5 1473.5 2004.5 1488.5 2004.5 1507L2004.5 1641C2004.5 1659.5 1989.5 1674.5 1971 1674.5L1837 1674.5C1818.5 1674.5 1803.5 1659.5 1803.5 1641Z" stroke="#2196F3" stroke-width="0.620735" stroke-miterlimit="8" fill="#2196F3" fill-rule="evenodd"/><g><g><g><path d="M1903.5 1568.88C1897.72 1568.88 1893.09 1564.25 1893.09 1558.47 1893.09 1552.69 1897.72 1548.06 1903.5 1548.06 1909.28 1548.06 1913.91 1552.69 1913.91 1558.47 1913.91 1564.25 1909.28 1568.88 1903.5 1568.88ZM1903.5 1534.19C1895.52 1534.19 1888.01 1538.12 1883.5 1544.82 1878.99 1551.42 1878.06 1559.86 1880.95 1567.37L1891.94 1591.65 1901.42 1611.54C1901.77 1612.35 1902.58 1612.81 1903.5 1612.81 1904.43 1612.81 1905.23 1612.35 1905.58 1611.54L1915.06 1591.65 1926.05 1567.37C1928.94 1559.86 1928.01 1551.42 1923.5 1544.82 1918.99 1538.12 1911.48 1534.19 1903.5 1534.19Z" stroke="#FFFFFF" stroke-width="1.15625" fill="#FFFFFF"/></g></g></g></g></svg>