<svg width="96" height="96" xmlns="http://www.w3.org/2000/svg" xmlns:xlink="http://www.w3.org/1999/xlink" xml:space="preserve" overflow="hidden"><g transform="translate(-1005 -189)"><path d="M1053 233C1048 233 1044 229 1044 224 1044 219 1048 215 1053 215 1058 215 1062 219 1062 224 1062 229 1058 233 1053 233ZM1053 203C1046.1 203 1039.6 206.4 1035.7 212.2 1031.8 217.9 1031 225.2 1033.5 231.7L1043 252.7 1051.2 269.9C1051.5 270.6 1052.2 271 1053 271 1053.8 271 1054.5 270.6 1054.8 269.9L1063 252.7 1072.5 231.7C1075 225.2 1074.2 217.9 1070.3 212.2 1066.4 206.4 1059.9 203 1053 203Z" stroke="#2196F3" fill="#2196F3"/></g></svg>