<svg width="96" height="96" xmlns="http://www.w3.org/2000/svg" xmlns:xlink="http://www.w3.org/1999/xlink" xml:space="preserve" overflow="hidden"><g transform="translate(-592 -300)"><path d="M665.489 342.707 666.903 341.293 661.11 335.5 666.903 329.707 665.489 328.293 659.696 334.086 653.903 328.293 652.489 329.707 658.282 335.5 652.489 341.293 653.903 342.707 659.696 336.914 665.489 342.707Z" stroke="#BFBFBF" fill="#BFBFBF"/><path d="M649.624 335.565C650.278 335.63 650.925 335.758 651.555 335.946L652.186 333.968 649.841 333.576Z" stroke="#BFBFBF" fill="#BFBFBF"/><path d="M634.937 366.314 634.995 368.314C636.062 368.283 637.095 368.219 638.06 368.124L637.86 366.134C636.943 366.223 635.958 366.284 634.937 366.314Z" stroke="#BFBFBF" fill="#BFBFBF"/><path d="M628.9 368.175C629.933 368.246 630.956 368.294 631.941 368.318L631.99 366.318C630.955 366.293 629.961 366.243 629.037 366.18Z" stroke="#BFBFBF" fill="#BFBFBF"/><path d="M638.886 342.954C639.402 343.939 640.078 344.831 640.886 345.595L642.315 344.195C641.666 343.583 641.118 342.871 640.691 342.088Z" stroke="#BFBFBF" fill="#BFBFBF"/><path d="M640.892 339.53C641.255 338.946 641.681 338.404 642.163 337.914L640.745 336.5C640.158 337.096 639.64 337.757 639.2 338.468 639.045 338.712 638.909 338.967 638.794 339.232L640.628 340.032C640.703 339.858 640.791 339.69 640.892 339.53Z" stroke="#BFBFBF" fill="#BFBFBF"/><path d="M646.879 335.6 646.598 333.62C645.502 333.771 644.436 334.093 643.439 334.573L644.316 336.373C645.125 335.984 645.99 335.723 646.879 335.6Z" stroke="#BFBFBF" fill="#BFBFBF"/><path d="M650.133 353.68C649.736 352.681 649.228 351.73 648.617 350.845L646.965 351.971C647.491 352.732 647.929 353.551 648.271 354.411Z" stroke="#BFBFBF" fill="#BFBFBF"/><path d="M622.832 367.5C622.88 367.508 624.032 367.7 625.868 367.9L626.087 365.911C624.315 365.717 623.178 365.526 623.166 365.524Z" stroke="#BFBFBF" fill="#BFBFBF"/><path d="M640.741 365.721 641.124 367.685C642.153 367.489 643.168 367.222 644.16 366.885L643.506 364.994C642.602 365.301 641.679 365.544 640.741 365.721Z" stroke="#BFBFBF" fill="#BFBFBF"/><path d="M646.008 363.823 647.076 365.514C648.037 364.922 648.877 364.155 649.553 363.251L647.936 362.073C647.409 362.773 646.755 363.367 646.008 363.823Z" stroke="#BFBFBF" fill="#BFBFBF"/><path d="M644.455 346.24 643.086 347.7C643.876 348.441 644.533 349.075 645.174 349.762L646.637 348.4C645.919 347.626 645.163 346.905 644.455 346.24Z" stroke="#BFBFBF" fill="#BFBFBF"/><path d="M648.937 357.057C648.986 357.489 649.01 357.923 649.011 358.357 649.011 358.551 649.006 358.748 648.996 358.949 648.983 359.219 648.954 359.488 648.908 359.755L650.879 360.097C650.939 359.75 650.977 359.399 650.994 359.047 651.006 358.813 651.011 358.584 651.011 358.357 651.011 357.845 650.982 357.334 650.923 356.826Z" stroke="#BFBFBF" fill="#BFBFBF"/><path d="M626.733 342 628.733 342 628.733 339 632.933 339 627.733 326 622.533 339 626.733 339ZM627.733 331.386 629.979 337 625.488 337Z" stroke="#BFBFBF" fill="#BFBFBF"/><path d="M664.336 360.039 666.092 360.039 661.857 350 657.622 360.039 659.378 360.039 656.524 366 660.856 366 660.856 369 662.856 369 662.856 366 667.19 366ZM661.857 355.145 663.078 358.039 660.636 358.039ZM659.7 364 661.183 360.9 661.858 359.491 662.533 360.9 664.015 364Z" stroke="#BFBFBF" fill="#BFBFBF"/><path d="M633 355.5 630 348 625.6 359 629 359 629 361 631 361 631 359 635 359 635 361 637 361 637 359 640.4 359 636 348ZM631 357 628.553 357 630 353.385 631.446 357ZM637 357 634.553 357 636 353.385 637.446 357Z" stroke="#BFBFBF" fill="#BFBFBF"/><path d="M670.445 318 617 318 617 308 609 308C605.688 308.004 603.004 310.688 603 314L603 372C603.004 375.312 605.688 377.996 609 378L663 378 663 388 671 388C674.312 387.996 676.996 385.312 677 382L677 324C676.838 320.537 673.909 317.856 670.445 318ZM605 314C605 311.791 606.791 310 609 310L615 310 615 366 609 366C607.523 365.999 606.099 366.544 605 367.531ZM605 372C605 369.791 606.791 368 609 368L617 368 617 320 670.445 320C672.803 319.859 674.835 321.643 675 324L675 376 609 376C606.791 376 605 374.209 605 372ZM675 382C675 384.209 673.209 386 671 386L665 386 665 378 675 378Z" stroke="#BFBFBF" fill="#BFBFBF"/></g></svg>