<svg width="96" height="96" xmlns="http://www.w3.org/2000/svg" xmlns:xlink="http://www.w3.org/1999/xlink" xml:space="preserve" overflow="hidden"><g transform="translate(-875 -188)"><path d="M895.9 245.6 915.1 226.4 904.4 226.4C907.9 219.6 915 214.9 923.2 214.9 928.5 214.9 933.4 216.9 937.1 220.2L956.6 220.2C950.7 207.6 937.9 199 923.2 199 906.1 199 891.7 210.6 887.5 226.4L876.7 226.4 895.9 245.6Z" stroke="#FFFFFF" fill="#FFFFFF"/><path d="M969.6 245.6 950.4 226.4 931.2 245.6 942 245.6C938.5 252.4 931.4 257.1 923.2 257.1 917.9 257.1 913 255.1 909.3 251.8L889.7 251.8C895.7 264.4 908.4 273 923.2 273 940.3 273 954.7 261.4 958.9 245.6L969.6 245.6Z" stroke="#FFFFFF" fill="#FFFFFF"/></g></svg>